<svg width="0" height="0" class="hidden">
  <symbol xmlns="http://www.w3.org/2000/svg" viewBox="0 0 512 512" id="loupe">
    <path d="M505.5 475.6L342 312.1c26.4-32.9 42.2-74.6 42.2-120.1 0-106-86-192-192-192S.2 86 .2 192s86 192 192 192c45.2 0 86.8-15.6 119.6-41.8l163.5 163.5c8.3 8.3 21.8 8.3 30.2 0 8.3-8.3 8.3-21.8 0-30.1zM42.9 192c0-82.5 66.9-149.3 149.3-149.3S341.6 109.5 341.6 192c0 41.4-16.8 78.8-44 105.8-27 26.9-64.2 43.5-105.3 43.5-82.5 0-149.4-66.8-149.4-149.3z"></path>
  </symbol>
  <symbol xmlns="http://www.w3.org/2000/svg" viewBox="0 0 128 128" id="paper-bin">
    <path d="M91 37.9h-5.1v-7.6c0-.5-.2-.9-.5-1.2L74 17.8c-.3-.3-.7-.5-1.2-.5H43.9c-1 0-1.7.8-1.8 1.7v18.9H37c-3.5 0-6.4 2.9-6.4 6.4v3.4c0 2.6 1.6 5 4 5.9v43.5c0 7.5 6.1 13.6 13.6 13.6h31.5c7.5 0 13.6-6.1 13.6-13.6V53.7c2.4-1 4-3.3 4-5.9v-3.4c.1-3.6-2.8-6.5-6.3-6.5zm-11.1-9.3h-5.4v-5.4zm-34.2-7.9H71v9.6c0 1 .8 1.8 1.8 1.8h9.6v5.8H45.7zm44.2 76.4c0 5.6-4.5 10.1-10.1 10.1H48.3c-5.6 0-10.1-4.5-10.1-10.1v-43h51.7zm4-49.4c0 1.6-1.3 2.9-2.9 2.9H37.1c-1.6 0-2.9-1.3-2.9-2.9v-3.4c0-1.6 1.3-2.9 2.9-2.9H91c1.6 0 2.9 1.3 2.9 2.9z"></path>
    <path d="M64 99.9c1 0 1.7-.8 1.8-1.7V63.3c0-1-.8-1.8-1.8-1.8s-1.8.8-1.8 1.8v34.8c0 1 .8 1.8 1.8 1.8zm-14.5-1.8c1 0 1.8-.8 1.8-1.8V65c0-1-.8-1.8-1.8-1.8s-1.7.8-1.7 1.8v31.4c0 .9.7 1.7 1.7 1.7zm29 0c1 0 1.8-.8 1.8-1.8V65c0-1-.8-1.8-1.8-1.8s-1.7.8-1.7 1.8v31.4c0 .9.7 1.7 1.7 1.7z"></path>
  </symbol>
  <symbol xmlns="http://www.w3.org/2000/svg" viewBox="0 0 512 512" id="plus">
    <path d="M492 236H276V20c0-11-9-20-20-20s-20 9-20 20v216H20c-11 0-20 9-20 20s9 20 20 20h216v216c0 11 9 20 20 20s20-9 20-20V276h216c11 0 20-9 20-20s-9-20-20-20z"></path>
  </symbol>
  <symbol xmlns="http://www.w3.org/2000/svg" viewBox="0 0 150 150" id="trash">
    <path d="M96.863 38.46a1 1 0 01-.993-.894L93.152 12.1l-41.321 4.408.779 7.251 18.1-3.2a1 1 0 011.159.811l2.81 15.91a1 1 0 11-1.97.348L70.069 22.7 51.9 25.915a1 1 0 01-1.168-.878l-1-9.31a1 1 0 01.888-1.1l43.31-4.62a1 1 0 011.1.888l2.824 26.46a1 1 0 01-.888 1.1.959.959 0 01-.103.005zM105.07 140H44.2a4.629 4.629 0 01-4.587-4.223L33 56a1 1 0 012-.161l6.608 79.773A2.618 2.618 0 0044.2 138h60.87a2.62 2.62 0 002.6-2.389l6.6-79.772a1 1 0 011.993.165l-6.6 79.772A4.632 4.632 0 01105.07 140z"></path>
    <path d="M117.45 56.92h-84.9a4.115 4.115 0 01-4.11-4.11V40.56a4.11 4.11 0 014.11-4.1h84.9a4.11 4.11 0 014.11 4.1v12.25a4.115 4.115 0 01-4.11 4.11zm-84.9-18.46a2.107 2.107 0 00-2.11 2.1v12.25a2.112 2.112 0 002.11 2.11h84.9a2.112 2.112 0 002.11-2.11V40.56a2.107 2.107 0 00-2.11-2.1zm20.21 91.467a1 1 0 01-.995-.91l-5.717-62.933a1 1 0 011.993-.18l5.716 62.933a1 1 0 01-.905 1.086.944.944 0 01-.092.004zm14.58 0a1 1 0 01-1-.97l-1.9-62.933a1 1 0 112-.06l1.9 62.936a1 1 0 01-.969 1.03zm14.581 0h-.031a1 1 0 01-.969-1.03l1.906-62.933a1 1 0 112 .06l-1.907 62.933a1 1 0 01-.999.97zm14.579 0h-.091a1 1 0 01-.906-1.086l5.718-62.941a1 1 0 111.992.18L97.5 129.017a1 1 0 01-1 .91z"></path>
    <path d="M73.69 38.45H38.02a1 1 0 01-.984-.825l-1.736-9.78a1 1 0 01.81-1.16l34.6-6.13a1 1 0 011.159.811l2.81 15.91a1 1 0 01-.985 1.174zm-34.832-2H72.5L70.069 22.7l-32.63 5.78zm73.682 2H89.77a1 1 0 01-.985-.828l-.8-4.559a1 1 0 01.81-1.158l22.06-3.9a1 1 0 011.159.809l1.51 8.46a1 1 0 01-.984 1.176zm-21.93-2h20.736l-1.125-6.3-20.094 3.55z"></path>
  </symbol>
  <symbol xmlns="http://www.w3.org/2000/svg" viewBox="0 0 512 512" id="delete">
    <path d="M437 75C388.6 26.6 324.4 0 256 0S123.3 26.6 75 75C26.6 123.4 0 187.6 0 256s26.6 132.7 75 181c48.4 48.4 112.6 75 181 75s132.7-26.6 181-75c48.4-48.4 75-112.6 75-181s-26.6-132.7-75-181zm-70.3 256.4c9.8 9.8 9.8 25.6 0 35.4-4.9 4.9-11.3 7.3-17.7 7.3s-12.8-2.4-17.7-7.3l-75.4-75.4-75.4 75.4c-4.9 4.9-11.3 7.3-17.7 7.3s-12.8-2.4-17.7-7.3c-9.8-9.8-9.8-25.6 0-35.4l75.4-75.4-75.4-75.4c-9.8-9.8-9.8-25.6 0-35.4 9.8-9.8 25.6-9.8 35.4 0l75.4 75.4 75.4-75.4c9.8-9.8 25.6-9.8 35.4 0 9.8 9.8 9.8 25.6 0 35.4L291.3 256zm0 0"></path>
  </symbol>
  <symbol xmlns="http://www.w3.org/2000/svg" viewBox="0 0 477.9 477.9" id="edit">
    <path d="M392.5 238.9c-9.4 0-17.1 7.6-17.1 17.1v170.7c0 9.4-7.6 17.1-17.1 17.1H51.2c-9.4 0-17.1-7.6-17.1-17.1V85.3c0-9.4 7.6-17.1 17.1-17.1H256c9.4 0 17.1-7.6 17.1-17.1s-7.7-17-17.1-17H51.2C22.9 34.1 0 57.1 0 85.3v341.4c0 28.3 22.9 51.2 51.2 51.2h307.2c28.3 0 51.2-22.9 51.2-51.2V256c0-9.4-7.6-17.1-17.1-17.1z"></path>
    <path d="M458.7 19.1C446.4 6.8 429.8 0 412.5 0c-17.3 0-34 6.8-46.2 19.1L141.5 243.9c-1.9 1.9-3.3 4.2-4.1 6.7L103.3 353c-3 8.9 1.9 18.6 10.8 21.6 1.7.6 3.6.9 5.4.9 1.8 0 3.7-.3 5.4-.9l102.4-34.1c2.5-.8 4.8-2.3 6.7-4.1l224.8-224.8c25.5-25.6 25.5-66.9-.1-92.5z"></path>
  </symbol>
  <symbol xmlns="http://www.w3.org/2000/svg" viewBox="0 0 477.9 477.9" id="edit-outline">
    <path d="M392.5 238.9c-9.4 0-17.1 7.6-17.1 17.1v170.7c0 9.4-7.6 17.1-17.1 17.1H51.2c-9.4 0-17.1-7.6-17.1-17.1V85.3c0-9.4 7.6-17.1 17.1-17.1H256c9.4 0 17.1-7.6 17.1-17.1s-7.7-17-17.1-17H51.2C22.9 34.1 0 57.1 0 85.3v341.4c0 28.3 22.9 51.2 51.2 51.2h307.2c28.3 0 51.2-22.9 51.2-51.2V256c0-9.4-7.6-17.1-17.1-17.1z"></path>
    <path d="M458.7 19.1C446.4 6.8 429.8 0 412.5 0c-17.3 0-34 6.8-46.2 19.1L141.5 243.9c-1.9 1.9-3.3 4.2-4.1 6.7L103.3 353c-3 8.9 1.9 18.6 10.8 21.6 1.7.6 3.6.9 5.4.9 1.8 0 3.7-.3 5.4-.9l102.4-34.1c2.5-.8 4.8-2.3 6.7-4.1l224.8-224.8c25.5-25.6 25.5-66.9-.1-92.5zm-24.1 68.3L212.7 309.3l-66.3 22.1 22.1-66.2 222-221.8c12.2-12.2 32-12.2 44.1 0 5.8 5.8 9.1 13.7 9.1 22 .1 8.2-3.2 16.2-9.1 22z"></path>
  </symbol>
  <symbol xmlns="http://www.w3.org/2000/svg" viewBox="0 0 128 128" id="empty-paper-bin">
    <path d="M91 37.9H37c-3.5 0-6.4 2.9-6.4 6.4v3.4c0 2.6 1.6 5 4 5.9v43.5c0 7.5 6.1 13.6 13.6 13.6h31.5c7.5 0 13.6-6.1 13.6-13.6V53.7c2.4-1 4-3.3 4-5.9v-3.4c.1-3.6-2.8-6.5-6.3-6.5zm-45.3 0h36.7-36.7zm44.2 59.2c0 5.6-4.5 10.1-10.1 10.1H48.3c-5.6 0-10.1-4.5-10.1-10.1v-43h51.7v43zm4-49.4c0 1.6-1.3 2.9-2.9 2.9H37.1c-1.6 0-2.9-1.3-2.9-2.9v-3.4c0-1.6 1.3-2.9 2.9-2.9H91c1.6 0 2.9 1.3 2.9 2.9v3.4z"></path>
    <path d="M64 99.9c1 0 1.7-.8 1.8-1.7V63.3c0-1-.8-1.8-1.8-1.8s-1.8.8-1.8 1.8v34.8c0 1 .8 1.8 1.8 1.8zm-14.5-1.8c1 0 1.8-.8 1.8-1.8V65c0-1-.8-1.8-1.8-1.8s-1.7.8-1.7 1.8v31.4c0 .9.7 1.7 1.7 1.7zm29 0c1 0 1.8-.8 1.8-1.8V65c0-1-.8-1.8-1.8-1.8s-1.7.8-1.7 1.8v31.4c0 .9.7 1.7 1.7 1.7z"></path>
  </symbol>
  <symbol xmlns="http://www.w3.org/2000/svg" viewBox="0 0 150 150" id="empty-trash">
    <path d="M105.07 140H44.2a4.629 4.629 0 01-4.587-4.223L33 56a1 1 0 012-.161l6.608 79.773A2.618 2.618 0 0044.2 138h60.87a2.62 2.62 0 002.6-2.389l6.6-79.772a1 1 0 011.993.165l-6.6 79.772A4.632 4.632 0 01105.07 140z"></path>
    <path d="M117.45 56.92h-84.9a4.115 4.115 0 01-4.11-4.11V40.56a4.11 4.11 0 014.11-4.1h84.9a4.11 4.11 0 014.11 4.1v12.25a4.115 4.115 0 01-4.11 4.11zm-84.9-18.46a2.107 2.107 0 00-2.11 2.1v12.25a2.112 2.112 0 002.11 2.11h84.9a2.112 2.112 0 002.11-2.11V40.56a2.107 2.107 0 00-2.11-2.1zm20.21 91.467a1 1 0 01-.995-.91l-5.717-62.933a1 1 0 011.993-.18l5.716 62.933a1 1 0 01-.905 1.086.944.944 0 01-.092.004zm14.58 0a1 1 0 01-1-.97l-1.9-62.933a1 1 0 112-.06l1.9 62.936a1 1 0 01-.969 1.03zm14.581 0h-.031a1 1 0 01-.969-1.03l1.906-62.933a1 1 0 112 .06l-1.907 62.933a1 1 0 01-.999.97zm14.579 0h-.091a1 1 0 01-.906-1.086l5.718-62.941a1 1 0 111.992.18L97.5 129.017a1 1 0 01-1 .91z"></path>
  </symbol>
  <symbol xmlns="http://www.w3.org/2000/svg" viewBox="0 0 512 512" id="home">
    <path d="M503.4 228.9L273.7 19.6c-10.1-9.2-25.3-9.2-35.4 0L8.6 228.9c-8.1 7.4-10.7 18.7-6.8 28.9 3.9 10.2 13.6 16.8 24.5 16.8H63v209.7c0 8.3 6.7 15.1 15.1 15.1H204c8.3 0 15.1-6.7 15.1-15.1V356.9h74v127.3c0 8.3 6.7 15.1 15.1 15.1h125.9c8.3 0 15.1-6.7 15.1-15.1V274.5h36.7c10.9 0 20.5-6.6 24.5-16.8 3.7-10.1 1.1-21.5-7-28.8zM445.1 42.7H344l116.2 105.6V57.7c-.1-8.2-6.8-15-15.1-15z"></path>
  </symbol>
  <symbol xmlns="http://www.w3.org/2000/svg" viewBox="0 0 512 512" id="home-outline">
    <path d="M503.4 228.9l-43.3-39.4V58.8c0-8.3-6.7-15.1-15.1-15.1H341c-8.3 0-15.1 6.7-15.1 15.1v8.4l-52.2-47.6c-10.1-9.2-25.3-9.2-35.4 0L8.6 228.9c-8.1 7.4-10.7 18.7-6.8 28.9 3.9 10.2 13.6 16.8 24.5 16.8H63v209.7c0 8.3 6.7 15.1 15.1 15.1H204c8.3 0 15.1-6.7 15.1-15.1V356.9H293v127.3c0 8.3 6.7 15.1 15.1 15.1H434c8.3 0 15.1-6.7 15.1-15.1V274.5h36.7c10.9 0 20.5-6.6 24.5-16.8 3.8-10.1 1.2-21.5-6.9-28.8zM434 244.4c-8.3 0-15.1 6.7-15.1 15.1v209.7h-95.8V341.9c0-8.3-6.7-15.1-15.1-15.1H203.9c-8.3 0-15.1 6.7-15.1 15.1v127.3H93V259.5c0-8.3-6.7-15.1-15.1-15.1H36.2L256 44.2l74.8 68.2c4.4 4 10.8 5.1 16.2 2.6 5.5-2.4 9-7.8 9-13.8V73.8h74v122.3c0 4.2 1.8 8.3 4.9 11.1l40.8 37.2H434z"></path>
  </symbol>
</svg>